STARTFONT 2.1
FONT -ctrlz-fixed-bold-i-normal--16-100-96-96-c-80-ISO10646-1
SIZE 10 96 96
FONTBOUNDINGBOX 12 16 -1 -4
COMMENT "Generated by fontforge, http://fontforge.sourceforge.net"
COMMENT "forked from Dina, http://www.donationcoder.com/Software/Jibz/Dina/"
STARTPROPERTIES 18
FACE_NAME "CtrlZ"
FAMILY_NAME "CtrlZ"
WEIGHT_NAME "Bold"
SLANT "I"
PIXEL_SIZE 16
POINT_SIZE 100
RESOLUTION_X 96
RESOLUTION_Y 96
CHARSET_REGISTRY "ISO10646"
CHARSET_ENCODING "1"
CAP_HEIGHT 9
WEIGHT 10
RESOLUTION 132
X_HEIGHT 0
QUAD_WIDTH 8
FONT_ASCENT 12
FONT_DESCENT 4
_GBDFED_INFO "Edited with gbdfed 1.6."
ENDPROPERTIES
CHARS 264
STARTCHAR $10
ENCODING 10
SWIDTH 600 0
DWIDTH 8 0
BBX 6 8 1 1
BITMAP
FC
84
84
84
84
84
84
FC
ENDCHAR
STARTCHAR $11
ENCODING 11
SWIDTH 600 0
DWIDTH 8 0
BBX 6 8 1 1
BITMAP
FC
84
84
84
84
84
84
FC
ENDCHAR
STARTCHAR $12
ENCODING 12
SWIDTH 600 0
DWIDTH 8 0
BBX 6 8 1 1
BITMAP
FC
84
84
84
84
84
84
FC
ENDCHAR
STARTCHAR $13
ENCODING 13
SWIDTH 600 0
DWIDTH 8 0
BBX 6 8 1 1
BITMAP
FC
84
84
84
84
84
84
FC
ENDCHAR
STARTCHAR $14
ENCODING 14
SWIDTH 600 0
DWIDTH 8 0
BBX 5 8 0 4
BITMAP
18
18
18
18
18
18
18
F8
ENDCHAR
STARTCHAR $15
ENCODING 15
SWIDTH 600 0
DWIDTH 8 0
BBX 5 8 3 4
BITMAP
C0
C0
C0
C0
C0
C0
C0
F8
ENDCHAR
STARTCHAR $16
ENCODING 16
SWIDTH 600 0
DWIDTH 8 0
BBX 5 9 3 -4
BITMAP
F8
C0
C0
C0
C0
C0
C0
C0
C0
ENDCHAR
STARTCHAR $17
ENCODING 17
SWIDTH 600 0
DWIDTH 8 0
BBX 5 9 0 -4
BITMAP
F8
18
18
18
18
18
18
18
18
ENDCHAR
STARTCHAR $18
ENCODING 18
SWIDTH 600 0
DWIDTH 8 0
BBX 8 1 0 4
BITMAP
FF
ENDCHAR
STARTCHAR $19
ENCODING 19
SWIDTH 600 0
DWIDTH 8 0
BBX 2 16 3 -4
BITMAP
C0
C0
C0
C0
C0
C0
C0
C0
C0
C0
C0
C0
C0
C0
C0
C0
ENDCHAR
STARTCHAR $20
ENCODING 20
SWIDTH 600 0
DWIDTH 8 0
BBX 5 16 0 -4
BITMAP
18
18
18
18
18
18
18
F8
18
18
18
18
18
18
18
18
ENDCHAR
STARTCHAR $21
ENCODING 21
SWIDTH 600 0
DWIDTH 8 0
BBX 8 8 0 4
BITMAP
18
18
18
18
18
18
18
FF
ENDCHAR
STARTCHAR $22
ENCODING 22
SWIDTH 600 0
DWIDTH 8 0
BBX 5 16 3 -4
BITMAP
C0
C0
C0
C0
C0
C0
C0
F8
C0
C0
C0
C0
C0
C0
C0
C0
ENDCHAR
STARTCHAR $23
ENCODING 23
SWIDTH 600 0
DWIDTH 8 0
BBX 8 9 0 -4
BITMAP
FF
18
18
18
18
18
18
18
18
ENDCHAR
STARTCHAR $24
ENCODING 24
SWIDTH 600 0
DWIDTH 8 0
BBX 8 16 0 -4
BITMAP
18
18
18
18
18
18
18
FF
18
18
18
18
18
18
18
18
ENDCHAR
STARTCHAR $25
ENCODING 25
SWIDTH 600 0
DWIDTH 8 0
BBX 8 16 0 -4
BITMAP
AA
55
AA
55
AA
55
AA
55
AA
55
AA
55
AA
55
AA
55
ENDCHAR
STARTCHAR $26
ENCODING 26
SWIDTH 600 0
DWIDTH 8 0
BBX 7 7 0 0
BITMAP
18
18
7E
30
FC
60
60
ENDCHAR
STARTCHAR $27
ENCODING 27
SWIDTH 600 0
DWIDTH 8 0
BBX 7 7 0 0
BITMAP
0E
38
E0
38
0C
00
FC
ENDCHAR
STARTCHAR $28
ENCODING 28
SWIDTH 600 0
DWIDTH 8 0
BBX 7 7 0 0
BITMAP
FE
6C
6C
6C
D8
D8
D8
ENDCHAR
STARTCHAR $29
ENCODING 29
SWIDTH 600 0
DWIDTH 8 0
BBX 7 7 0 0
BITMAP
60
38
0E
38
E0
00
FC
ENDCHAR
STARTCHAR $30
ENCODING 30
SWIDTH 600 0
DWIDTH 8 0
BBX 8 9 0 0
BITMAP
0E
1B
18
30
7C
30
60
C0
FC
ENDCHAR
STARTCHAR $31
ENCODING 31
SWIDTH 600 0
DWIDTH 8 0
BBX 4 1 2 3
BITMAP
F0
ENDCHAR
STARTCHAR $32
ENCODING 32
SWIDTH 600 0
DWIDTH 8 0
BBX 1 1 7 -4
BITMAP
00
ENDCHAR
STARTCHAR $33
ENCODING 33
SWIDTH 600 0
DWIDTH 8 0
BBX 4 10 2 0
BITMAP
30
30
30
60
60
60
00
00
C0
C0
ENDCHAR
STARTCHAR $34
ENCODING 34
SWIDTH 600 0
DWIDTH 8 0
BBX 6 3 1 8
BITMAP
CC
CC
CC
ENDCHAR
STARTCHAR $35
ENCODING 35
SWIDTH 600 0
DWIDTH 8 0
BBX 7 8 0 0
BITMAP
34
34
7E
34
68
FC
68
68
ENDCHAR
STARTCHAR $36
ENCODING 36
SWIDTH 600 0
DWIDTH 8 0
BBX 7 11 0 -1
BITMAP
08
1C
3A
68
70
38
1C
2C
B8
70
20
ENDCHAR
STARTCHAR $37
ENCODING 37
SWIDTH 600 0
DWIDTH 8 0
BBX 8 11 0 -1
BITMAP
30
68
68
33
0F
3C
F0
CC
1A
1A
0C
ENDCHAR
STARTCHAR $38
ENCODING 38
SWIDTH 600 0
DWIDTH 8 0
BBX 7 10 0 0
BITMAP
0C
16
36
3C
30
5A
CC
D8
D8
76
ENDCHAR
STARTCHAR $39
ENCODING 39
SWIDTH 600 0
DWIDTH 8 0
BBX 2 3 3 8
BITMAP
C0
C0
C0
ENDCHAR
STARTCHAR $40
ENCODING 40
SWIDTH 600 0
DWIDTH 8 0
BBX 6 13 1 -2
BITMAP
0C
18
30
60
60
C0
C0
C0
C0
C0
60
60
30
ENDCHAR
STARTCHAR $41
ENCODING 41
SWIDTH 600 0
DWIDTH 8 0
BBX 6 13 1 -2
BITMAP
30
18
18
0C
0C
0C
0C
0C
18
18
30
60
C0
ENDCHAR
STARTCHAR $42
ENCODING 42
SWIDTH 600 0
DWIDTH 8 0
BBX 7 5 0 2
BITMAP
6C
38
FE
70
D8
ENDCHAR
STARTCHAR $43
ENCODING 43
SWIDTH 600 0
DWIDTH 8 0
BBX 7 5 0 2
BITMAP
18
18
FE
30
30
ENDCHAR
STARTCHAR $44
ENCODING 44
SWIDTH 600 0
DWIDTH 8 0
BBX 4 4 0 -2
BITMAP
30
30
60
C0
ENDCHAR
STARTCHAR $45
ENCODING 45
SWIDTH 600 0
DWIDTH 8 0
BBX 6 1 1 4
BITMAP
FC
ENDCHAR
STARTCHAR $46
ENCODING 46
SWIDTH 600 0
DWIDTH 8 0
BBX 2 2 2 0
BITMAP
C0
C0
ENDCHAR
STARTCHAR $47
ENCODING 47
SWIDTH 600 0
DWIDTH 8 0
BBX 8 10 0 0
BITMAP
03
03
06
0C
18
18
30
60
C0
C0
ENDCHAR
STARTCHAR $48
ENCODING 48
SWIDTH 600 0
DWIDTH 8 0
BBX 9 10 0 0
BITMAP
0F80
3180
3180
3380
6F00
7B00
7300
C600
C600
7C00
ENDCHAR
STARTCHAR $49
ENCODING 49
SWIDTH 600 0
DWIDTH 8 0
BBX 7 10 1 0
BITMAP
06
1C
3C
0C
18
18
18
30
30
FC
ENDCHAR
STARTCHAR $50
ENCODING 50
SWIDTH 600 0
DWIDTH 8 0
BBX 9 10 0 0
BITMAP
0F80
3180
3180
0180
0600
0C00
1800
6000
C000
FE00
ENDCHAR
STARTCHAR $51
ENCODING 51
SWIDTH 600 0
DWIDTH 8 0
BBX 9 10 0 0
BITMAP
0F80
3180
3180
0180
1E00
0300
0300
C600
C600
7C00
ENDCHAR
STARTCHAR $52
ENCODING 52
SWIDTH 600 0
DWIDTH 8 0
BBX 9 10 1 0
BITMAP
0180
0700
0F00
1B00
6600
C600
FE00
0C00
0C00
0C00
ENDCHAR
STARTCHAR $53
ENCODING 53
SWIDTH 600 0
DWIDTH 8 0
BBX 10 10 0 0
BITMAP
1FC0
3000
3000
3000
7E00
0300
0300
0600
C600
7C00
ENDCHAR
STARTCHAR $54
ENCODING 54
SWIDTH 600 0
DWIDTH 8 0
BBX 9 10 0 0
BITMAP
0780
1800
3000
3000
7E00
6300
6300
C600
C600
7C00
ENDCHAR
STARTCHAR $55
ENCODING 55
SWIDTH 600 0
DWIDTH 8 0
BBX 8 10 2 0
BITMAP
7F
06
06
0C
18
30
30
C0
C0
C0
ENDCHAR
STARTCHAR $56
ENCODING 56
SWIDTH 600 0
DWIDTH 8 0
BBX 9 10 0 0
BITMAP
0F80
3180
3180
3180
3E00
6300
6300
C600
C600
7C00
ENDCHAR
STARTCHAR $57
ENCODING 57
SWIDTH 600 0
DWIDTH 8 0
BBX 8 10 1 0
BITMAP
1F
63
63
63
C6
7E
06
0C
18
F0
ENDCHAR
STARTCHAR $58
ENCODING 58
SWIDTH 600 0
DWIDTH 8 0
BBX 3 7 2 0
BITMAP
60
60
00
00
00
C0
C0
ENDCHAR
STARTCHAR $59
ENCODING 59
SWIDTH 600 0
DWIDTH 8 0
BBX 5 9 0 -2
BITMAP
18
18
00
00
00
30
30
60
C0
ENDCHAR
STARTCHAR $60
ENCODING 60
SWIDTH 600 0
DWIDTH 8 0
BBX 6 9 1 0
BITMAP
0C
18
30
60
C0
60
60
30
30
ENDCHAR
STARTCHAR $61
ENCODING 61
SWIDTH 600 0
DWIDTH 8 0
BBX 7 3 0 3
BITMAP
7E
00
FC
ENDCHAR
STARTCHAR $62
ENCODING 62
SWIDTH 600 0
DWIDTH 8 0
BBX 6 9 1 0
BITMAP
30
30
18
18
0C
18
30
60
C0
ENDCHAR
STARTCHAR $63
ENCODING 63
SWIDTH 600 0
DWIDTH 8 0
BBX 6 10 2 0
BITMAP
78
CC
0C
18
30
60
60
00
C0
C0
ENDCHAR
STARTCHAR $64
ENCODING 64
SWIDTH 600 0
DWIDTH 8 0
BBX 8 9 0 0
BITMAP
1E
33
33
66
6E
6C
CC
C0
7C
ENDCHAR
STARTCHAR $65
ENCODING 65
SWIDTH 600 0
DWIDTH 8 0
BBX 9 10 0 0
BITMAP
0F80
3180
3180
3180
6300
7F00
6300
C600
C600
C600
ENDCHAR
STARTCHAR $66
ENCODING 66
SWIDTH 600 0
DWIDTH 8 0
BBX 9 10 0 0
BITMAP
1F80
3180
3180
3180
7E00
6300
6300
C600
C600
FC00
ENDCHAR
STARTCHAR $67
ENCODING 67
SWIDTH 600 0
DWIDTH 8 0
BBX 9 10 0 0
BITMAP
0F80
3180
3180
3000
6000
6000
6000
C600
C600
7C00
ENDCHAR
STARTCHAR $68
ENCODING 68
SWIDTH 600 0
DWIDTH 8 0
BBX 9 10 0 0
BITMAP
1F00
3300
3180
3180
6300
6300
6300
C600
CC00
F800
ENDCHAR
STARTCHAR $69
ENCODING 69
SWIDTH 600 0
DWIDTH 8 0
BBX 10 10 0 0
BITMAP
1FC0
3000
3000
3000
7C00
6000
6000
C000
C000
FE00
ENDCHAR
STARTCHAR $70
ENCODING 70
SWIDTH 600 0
DWIDTH 8 0
BBX 10 10 0 0
BITMAP
1FC0
3000
3000
3000
7C00
6000
6000
C000
C000
C000
ENDCHAR
STARTCHAR $71
ENCODING 71
SWIDTH 600 0
DWIDTH 8 0
BBX 9 10 0 0
BITMAP
0F80
3180
3180
3000
6000
6F00
6300
C600
C600
7C00
ENDCHAR
STARTCHAR $72
ENCODING 72
SWIDTH 600 0
DWIDTH 8 0
BBX 10 10 0 0
BITMAP
18C0
3180
3180
3180
7F00
6300
6300
C600
C600
C600
ENDCHAR
STARTCHAR $73
ENCODING 73
SWIDTH 600 0
DWIDTH 8 0
BBX 7 10 2 0
BITMAP
1E
18
18
18
30
30
30
60
60
F0
ENDCHAR
STARTCHAR $74
ENCODING 74
SWIDTH 600 0
DWIDTH 8 0
BBX 10 10 0 0
BITMAP
03C0
0300
0300
0300
0600
0600
0600
CC00
CC00
7800
ENDCHAR
STARTCHAR $75
ENCODING 75
SWIDTH 600 0
DWIDTH 8 0
BBX 10 10 0 0
BITMAP
18C0
3180
3300
3600
7800
7800
6800
CC00
C600
C600
ENDCHAR
STARTCHAR $76
ENCODING 76
SWIDTH 600 0
DWIDTH 8 0
BBX 7 10 0 0
BITMAP
18
30
30
30
60
60
60
C0
C0
FE
ENDCHAR
STARTCHAR $77
ENCODING 77
SWIDTH 600 0
DWIDTH 8 0
BBX 10 10 0 0
BITMAP
1040
3180
3B80
3F80
6B00
6300
6300
C600
C600
C600
ENDCHAR
STARTCHAR $78
ENCODING 78
SWIDTH 600 0
DWIDTH 8 0
BBX 10 10 0 0
BITMAP
18C0
3180
3180
3980
7B00
6F00
6700
C600
C600
C600
ENDCHAR
STARTCHAR $79
ENCODING 79
SWIDTH 600 0
DWIDTH 8 0
BBX 9 10 0 0
BITMAP
0F80
3180
3180
3180
6300
6300
6300
C600
C600
7C00
ENDCHAR
STARTCHAR $80
ENCODING 80
SWIDTH 600 0
DWIDTH 8 0
BBX 9 10 0 0
BITMAP
1F80
3180
3180
3180
6300
7E00
6000
C000
C000
C000
ENDCHAR
STARTCHAR $81
ENCODING 81
SWIDTH 600 0
DWIDTH 8 0
BBX 9 11 0 -1
BITMAP
0F80
3180
3180
3180
6300
6300
6300
C600
DE00
7C00
0C00
ENDCHAR
STARTCHAR $82
ENCODING 82
SWIDTH 600 0
DWIDTH 8 0
BBX 9 10 0 0
BITMAP
1F80
3180
3180
3180
6300
7E00
7800
D800
CC00
C600
ENDCHAR
STARTCHAR $83
ENCODING 83
SWIDTH 600 0
DWIDTH 8 0
BBX 9 10 0 0
BITMAP
0F80
3180
3000
3000
3E00
0300
0300
C600
C600
7C00
ENDCHAR
STARTCHAR $84
ENCODING 84
SWIDTH 600 0
DWIDTH 8 0
BBX 8 10 3 0
BITMAP
FF
30
30
30
60
60
60
C0
C0
C0
ENDCHAR
STARTCHAR $85
ENCODING 85
SWIDTH 600 0
DWIDTH 8 0
BBX 10 10 0 0
BITMAP
18C0
3180
3180
3180
6300
6300
6300
C600
C600
7C00
ENDCHAR
STARTCHAR $86
ENCODING 86
SWIDTH 600 0
DWIDTH 8 0
BBX 9 10 1 0
BITMAP
3180
6300
6300
6300
C600
6C00
6C00
D800
7000
7000
ENDCHAR
STARTCHAR $87
ENCODING 87
SWIDTH 600 0
DWIDTH 8 0
BBX 10 10 0 0
BITMAP
18C0
3180
3180
3180
6300
6B00
7F00
EE00
C600
8200
ENDCHAR
STARTCHAR $88
ENCODING 88
SWIDTH 600 0
DWIDTH 8 0
BBX 10 10 0 0
BITMAP
18C0
3180
1B00
1B00
1C00
1C00
3600
6C00
C600
C600
ENDCHAR
STARTCHAR $89
ENCODING 89
SWIDTH 600 0
DWIDTH 8 0
BBX 9 10 2 0
BITMAP
6180
C300
6600
6600
7800
3000
3000
6000
6000
6000
ENDCHAR
STARTCHAR $90
ENCODING 90
SWIDTH 600 0
DWIDTH 8 0
BBX 10 10 0 0
BITMAP
1FC0
0180
0180
0300
0C00
1800
3000
C000
C000
FE00
ENDCHAR
STARTCHAR $91
ENCODING 91
SWIDTH 600 0
DWIDTH 8 0
BBX 6 13 1 -2
BITMAP
3C
30
30
30
60
60
60
60
60
C0
C0
C0
F0
ENDCHAR
STARTCHAR $92
ENCODING 92
SWIDTH 600 0
DWIDTH 8 0
BBX 6 12 1 -1
BITMAP
C0
C0
60
60
60
30
30
18
18
18
0C
0C
ENDCHAR
STARTCHAR $93
ENCODING 93
SWIDTH 600 0
DWIDTH 8 0
BBX 6 13 0 -2
BITMAP
3C
0C
0C
0C
18
18
18
18
18
30
30
30
F0
ENDCHAR
STARTCHAR $94
ENCODING 94
SWIDTH 600 0
DWIDTH 8 0
BBX 6 5 1 5
BITMAP
18
38
6C
CC
CC
ENDCHAR
STARTCHAR $95
ENCODING 95
SWIDTH 600 0
DWIDTH 8 0
BBX 8 1 0 -1
BITMAP
FF
ENDCHAR
STARTCHAR $96
ENCODING 96
SWIDTH 600 0
DWIDTH 8 0
BBX 4 3 2 8
BITMAP
E0
60
30
ENDCHAR
STARTCHAR $97
ENCODING 97
SWIDTH 600 0
DWIDTH 8 0
BBX 7 7 0 0
BITMAP
3C
06
06
7C
CC
CC
7C
ENDCHAR
STARTCHAR $98
ENCODING 98
SWIDTH 600 0
DWIDTH 8 0
BBX 7 10 0 0
BITMAP
30
30
30
3C
66
66
66
CC
CC
F8
ENDCHAR
STARTCHAR $99
ENCODING 99
SWIDTH 600 0
DWIDTH 8 0
BBX 7 7 0 0
BITMAP
3C
66
60
C0
C0
CC
78
ENDCHAR
STARTCHAR $100
ENCODING 100
SWIDTH 600 0
DWIDTH 8 0
BBX 8 10 0 0
BITMAP
03
03
03
3E
66
66
C6
CC
CC
7C
ENDCHAR
STARTCHAR $101
ENCODING 101
SWIDTH 600 0
DWIDTH 8 0
BBX 7 7 0 0
BITMAP
3C
66
66
FE
C0
CC
78
ENDCHAR
STARTCHAR $102
ENCODING 102
SWIDTH 600 0
DWIDTH 8 0
BBX 6 10 1 0
BITMAP
1C
30
30
F8
60
60
60
C0
C0
C0
ENDCHAR
STARTCHAR $103
ENCODING 103
SWIDTH 600 0
DWIDTH 8 0
BBX 7 11 0 -4
BITMAP
3E
66
66
C6
CC
CC
7C
0C
18
18
F0
ENDCHAR
STARTCHAR $104
ENCODING 104
SWIDTH 600 0
DWIDTH 8 0
BBX 7 10 0 0
BITMAP
30
30
30
7C
66
66
66
CC
CC
CC
ENDCHAR
STARTCHAR $105
ENCODING 105
SWIDTH 600 0
DWIDTH 8 0
BBX 6 10 0 0
BITMAP
0C
0C
00
78
18
18
18
30
30
FC
ENDCHAR
STARTCHAR $106
ENCODING 106
SWIDTH 600 0
DWIDTH 8 0
BBX 8 13 -1 -3
BITMAP
03
03
00
1E
06
06
06
0C
0C
0C
0C
18
F8
ENDCHAR
STARTCHAR $107
ENCODING 107
SWIDTH 600 0
DWIDTH 8 0
BBX 7 10 0 0
BITMAP
30
30
30
66
6C
78
78
D8
CC
C6
ENDCHAR
STARTCHAR $108
ENCODING 108
SWIDTH 600 0
DWIDTH 8 0
BBX 4 10 2 0
BITMAP
F0
30
30
60
60
60
60
C0
C0
70
ENDCHAR
STARTCHAR $109
ENCODING 109
SWIDTH 600 0
DWIDTH 8 0
BBX 8 7 0 0
BITMAP
7E
6B
6B
6B
D6
D6
D6
ENDCHAR
STARTCHAR $110
ENCODING 110
SWIDTH 600 0
DWIDTH 8 0
BBX 7 7 0 0
BITMAP
7C
66
66
66
CC
CC
CC
ENDCHAR
STARTCHAR $111
ENCODING 111
SWIDTH 600 0
DWIDTH 8 0
BBX 7 7 0 0
BITMAP
3C
66
66
C6
CC
CC
78
ENDCHAR
STARTCHAR $112
ENCODING 112
SWIDTH 600 0
DWIDTH 8 0
BBX 7 11 0 -4
BITMAP
3C
36
36
36
6C
6C
78
60
C0
C0
C0
ENDCHAR
STARTCHAR $113
ENCODING 113
SWIDTH 600 0
DWIDTH 8 0
BBX 7 11 0 -4
BITMAP
3E
66
66
C6
CC
CC
7C
0C
18
18
18
ENDCHAR
STARTCHAR $114
ENCODING 114
SWIDTH 600 0
DWIDTH 8 0
BBX 7 7 0 0
BITMAP
6C
76
60
60
C0
C0
C0
ENDCHAR
STARTCHAR $115
ENCODING 115
SWIDTH 600 0
DWIDTH 8 0
BBX 7 7 0 0
BITMAP
3C
66
60
38
0C
CC
78
ENDCHAR
STARTCHAR $116
ENCODING 116
SWIDTH 600 0
DWIDTH 8 0
BBX 6 9 1 0
BITMAP
30
30
FC
60
60
60
C0
C0
78
ENDCHAR
STARTCHAR $117
ENCODING 117
SWIDTH 600 0
DWIDTH 8 0
BBX 7 7 0 0
BITMAP
66
66
66
CC
CC
CC
7C
ENDCHAR
STARTCHAR $118
ENCODING 118
SWIDTH 600 0
DWIDTH 8 0
BBX 6 7 1 0
BITMAP
CC
CC
D8
D8
F0
60
60
ENDCHAR
STARTCHAR $119
ENCODING 119
SWIDTH 600 0
DWIDTH 8 0
BBX 8 7 0 0
BITMAP
6B
6B
6B
6B
D6
D6
FC
ENDCHAR
STARTCHAR $120
ENCODING 120
SWIDTH 600 0
DWIDTH 8 0
BBX 8 7 0 0
BITMAP
33
36
3C
18
3C
6C
CC
ENDCHAR
STARTCHAR $121
ENCODING 121
SWIDTH 600 0
DWIDTH 8 0
BBX 7 11 0 -4
BITMAP
66
66
66
CC
CC
CC
7C
18
18
18
F0
ENDCHAR
STARTCHAR $122
ENCODING 122
SWIDTH 600 0
DWIDTH 8 0
BBX 7 7 0 0
BITMAP
7E
06
0C
38
60
C0
FC
ENDCHAR
STARTCHAR $123
ENCODING 123
SWIDTH 600 0
DWIDTH 8 0
BBX 7 13 1 -2
BITMAP
0E
18
18
18
30
30
E0
30
30
60
60
60
38
ENDCHAR
STARTCHAR $124
ENCODING 124
SWIDTH 600 0
DWIDTH 8 0
BBX 4 13 2 -2
BITMAP
30
30
30
30
60
60
60
60
60
C0
C0
C0
C0
ENDCHAR
STARTCHAR $125
ENCODING 125
SWIDTH 600 0
DWIDTH 8 0
BBX 7 13 0 -2
BITMAP
38
0C
0C
0C
18
18
0E
18
18
30
30
30
E0
ENDCHAR
STARTCHAR $126
ENCODING 126
SWIDTH 600 0
DWIDTH 8 0
BBX 6 3 1 3
BITMAP
64
FC
98
ENDCHAR
STARTCHAR $127
ENCODING 127
SWIDTH 600 0
DWIDTH 8 0
BBX 1 1 7 -4
BITMAP
00
ENDCHAR
STARTCHAR $128
ENCODING 128
SWIDTH 600 0
DWIDTH 8 0
BBX 7 7 0 0
BITMAP
1C
36
78
30
F8
6C
38
ENDCHAR
STARTCHAR $129
ENCODING 129
SWIDTH 600 0
DWIDTH 8 0
BBX 1 1 7 -4
BITMAP
00
ENDCHAR
STARTCHAR $130
ENCODING 130
SWIDTH 600 0
DWIDTH 8 0
BBX 4 4 1 -2
BITMAP
30
30
60
C0
ENDCHAR
STARTCHAR $131
ENCODING 131
SWIDTH 600 0
DWIDTH 8 0
BBX 8 13 0 -2
BITMAP
07
0C
0C
0C
3E
18
18
18
18
30
30
30
E0
ENDCHAR
STARTCHAR $132
ENCODING 132
SWIDTH 600 0
DWIDTH 8 0
BBX 6 3 1 -1
BITMAP
CC
CC
CC
ENDCHAR
STARTCHAR $133
ENCODING 133
SWIDTH 600 0
DWIDTH 8 0
BBX 5 1 1 0
BITMAP
A8
ENDCHAR
STARTCHAR $134
ENCODING 134
SWIDTH 600 0
DWIDTH 8 0
BBX 6 11 1 0
BITMAP
18
18
18
FC
30
30
30
30
60
60
60
ENDCHAR
STARTCHAR $135
ENCODING 135
SWIDTH 600 0
DWIDTH 8 0
BBX 6 11 1 0
BITMAP
18
18
18
FC
30
30
FC
30
60
60
60
ENDCHAR
STARTCHAR $136
ENCODING 136
SWIDTH 600 0
DWIDTH 8 0
BBX 6 3 1 8
BITMAP
38
6C
CC
ENDCHAR
STARTCHAR $137
ENCODING 137
SWIDTH 600 0
DWIDTH 8 0
BBX 5 8 1 0
BITMAP
90
90
20
20
40
40
A8
A8
ENDCHAR
STARTCHAR $138
ENCODING 138
SWIDTH 600 0
DWIDTH 8 0
BBX 8 11 0 0
BITMAP
1B
0E
1E
33
60
60
3C
06
06
CC
78
ENDCHAR
STARTCHAR $139
ENCODING 139
SWIDTH 600 0
DWIDTH 8 0
BBX 4 5 1 1
BITMAP
30
60
C0
C0
60
ENDCHAR
STARTCHAR $140
ENCODING 140
SWIDTH 600 0
DWIDTH 8 0
BBX 8 9 0 0
BITMAP
1B
36
34
6C
6E
68
D8
D8
6C
ENDCHAR
STARTCHAR $141
ENCODING 141
SWIDTH 600 0
DWIDTH 8 0
BBX 1 1 7 -4
BITMAP
00
ENDCHAR
STARTCHAR $142
ENCODING 142
SWIDTH 600 0
DWIDTH 8 0
BBX 8 11 0 0
BITMAP
1B
0E
3F
03
06
0C
18
30
60
C0
FC
ENDCHAR
STARTCHAR $143
ENCODING 143
SWIDTH 600 0
DWIDTH 8 0
BBX 1 1 7 -4
BITMAP
00
ENDCHAR
STARTCHAR $144
ENCODING 144
SWIDTH 600 0
DWIDTH 8 0
BBX 1 1 7 -4
BITMAP
00
ENDCHAR
STARTCHAR $145
ENCODING 145
SWIDTH 600 0
DWIDTH 8 0
BBX 4 3 2 8
BITMAP
E0
60
30
ENDCHAR
STARTCHAR $146
ENCODING 146
SWIDTH 600 0
DWIDTH 8 0
BBX 4 3 2 8
BITMAP
70
60
C0
ENDCHAR
STARTCHAR $147
ENCODING 147
SWIDTH 600 0
DWIDTH 8 0
BBX 6 3 1 8
BITMAP
D8
D8
6C
ENDCHAR
STARTCHAR $148
ENCODING 148
SWIDTH 600 0
DWIDTH 8 0
BBX 6 3 1 8
BITMAP
6C
6C
D8
ENDCHAR
STARTCHAR $149
ENCODING 149
SWIDTH 600 0
DWIDTH 8 0
BBX 6 5 1 1
BITMAP
30
78
FC
78
30
ENDCHAR
STARTCHAR $150
ENCODING 150
SWIDTH 600 0
DWIDTH 8 0
BBX 6 1 1 3
BITMAP
FC
ENDCHAR
STARTCHAR $151
ENCODING 151
SWIDTH 600 0
DWIDTH 8 0
BBX 8 1 0 3
BITMAP
FF
ENDCHAR
STARTCHAR $152
ENCODING 152
SWIDTH 600 0
DWIDTH 8 0
BBX 5 2 1 7
BITMAP
68
B0
ENDCHAR
STARTCHAR $153
ENCODING 153
SWIDTH 600 0
DWIDTH 8 0
BBX 6 4 1 5
BITMAP
F4
5C
54
54
ENDCHAR
STARTCHAR $154
ENCODING 154
SWIDTH 600 0
DWIDTH 8 0
BBX 7 10 0 0
BITMAP
36
1C
00
3C
66
60
38
0C
CC
78
ENDCHAR
STARTCHAR $155
ENCODING 155
SWIDTH 600 0
DWIDTH 8 0
BBX 4 5 1 1
BITMAP
60
30
30
60
C0
ENDCHAR
STARTCHAR $156
ENCODING 156
SWIDTH 600 0
DWIDTH 8 0
BBX 7 7 0 0
BITMAP
34
5A
5A
BC
B0
B2
6C
ENDCHAR
STARTCHAR $157
ENCODING 157
SWIDTH 600 0
DWIDTH 8 0
BBX 1 1 7 -4
BITMAP
00
ENDCHAR
STARTCHAR $158
ENCODING 158
SWIDTH 600 0
DWIDTH 8 0
BBX 7 10 0 0
BITMAP
36
1C
00
7E
0C
18
30
60
C0
FC
ENDCHAR
STARTCHAR $159
ENCODING 159
SWIDTH 600 0
DWIDTH 8 0
BBX 7 11 1 0
BITMAP
66
66
00
C6
C6
CC
78
70
60
C0
C0
ENDCHAR
STARTCHAR $160
ENCODING 160
SWIDTH 600 0
DWIDTH 8 0
BBX 1 1 7 -4
BITMAP
00
ENDCHAR
STARTCHAR $161
ENCODING 161
SWIDTH 600 0
DWIDTH 8 0
BBX 4 10 2 0
BITMAP
30
30
00
00
60
60
60
C0
C0
C0
ENDCHAR
STARTCHAR $162
ENCODING 162
SWIDTH 600 0
DWIDTH 8 0
BBX 7 9 0 -1
BITMAP
08
3C
6A
68
C8
D0
D4
78
10
ENDCHAR
STARTCHAR $163
ENCODING 163
SWIDTH 600 0
DWIDTH 8 0
BBX 8 9 0 0
BITMAP
0E
1B
18
30
7C
30
60
C0
FC
ENDCHAR
STARTCHAR $164
ENCODING 164
SWIDTH 600 0
DWIDTH 8 0
BBX 7 6 0 1
BITMAP
66
3C
34
68
78
CC
ENDCHAR
STARTCHAR $165
ENCODING 165
SWIDTH 600 0
DWIDTH 8 0
BBX 8 9 0 0
BITMAP
63
63
66
3C
38
30
FC
60
60
ENDCHAR
STARTCHAR $166
ENCODING 166
SWIDTH 600 0
DWIDTH 8 0
BBX 6 14 1 -3
BITMAP
0C
0C
0C
18
18
18
00
00
60
60
60
C0
C0
C0
ENDCHAR
STARTCHAR $167
ENCODING 167
SWIDTH 600 0
DWIDTH 8 0
BBX 8 9 0 0
BITMAP
1E
33
30
18
34
18
0C
CC
78
ENDCHAR
STARTCHAR $168
ENCODING 168
SWIDTH 600 0
DWIDTH 8 0
BBX 6 2 1 9
BITMAP
CC
CC
ENDCHAR
STARTCHAR $169
ENCODING 169
SWIDTH 600 0
DWIDTH 8 0
BBX 8 9 0 0
BITMAP
1E
33
3B
76
76
6E
DC
CC
78
ENDCHAR
STARTCHAR $170
ENCODING 170
SWIDTH 600 0
DWIDTH 8 0
BBX 4 5 1 4
BITMAP
60
10
70
90
70
ENDCHAR
STARTCHAR $171
ENCODING 171
SWIDTH 600 0
DWIDTH 8 0
BBX 7 5 0 1
BITMAP
36
6C
D8
D8
6C
ENDCHAR
STARTCHAR $172
ENCODING 172
SWIDTH 600 0
DWIDTH 8 0
BBX 5 4 1 1
BITMAP
F8
18
30
30
ENDCHAR
STARTCHAR $173
ENCODING 173
SWIDTH 600 0
DWIDTH 8 0
BBX 1 1 7 -4
BITMAP
00
ENDCHAR
STARTCHAR $174
ENCODING 174
SWIDTH 600 0
DWIDTH 8 0
BBX 8 9 0 0
BITMAP
1E
21
39
56
7A
6E
AC
84
78
ENDCHAR
STARTCHAR $175
ENCODING 175
SWIDTH 600 0
DWIDTH 8 0
BBX 8 1 0 11
BITMAP
FF
ENDCHAR
STARTCHAR $176
ENCODING 176
SWIDTH 600 0
DWIDTH 8 0
BBX 5 4 1 7
BITMAP
70
D8
D8
70
ENDCHAR
STARTCHAR $177
ENCODING 177
SWIDTH 600 0
DWIDTH 8 0
BBX 7 7 0 1
BITMAP
18
18
FE
30
30
00
F8
ENDCHAR
STARTCHAR $178
ENCODING 178
SWIDTH 600 0
DWIDTH 8 0
BBX 5 6 1 5
BITMAP
F0
18
30
60
C0
F8
ENDCHAR
STARTCHAR $179
ENCODING 179
SWIDTH 600 0
DWIDTH 8 0
BBX 5 6 1 5
BITMAP
F0
18
70
18
18
F0
ENDCHAR
STARTCHAR $180
ENCODING 180
SWIDTH 600 0
DWIDTH 8 0
BBX 4 3 2 8
BITMAP
70
60
C0
ENDCHAR
STARTCHAR $181
ENCODING 181
SWIDTH 600 0
DWIDTH 8 0
BBX 7 10 0 -3
BITMAP
36
36
36
6C
6C
7C
68
60
60
C0
ENDCHAR
STARTCHAR $182
ENCODING 182
SWIDTH 600 0
DWIDTH 8 0
BBX 6 11 1 -2
BITMAP
7C
E8
E8
E8
68
28
28
28
28
28
28
ENDCHAR
STARTCHAR $183
ENCODING 183
SWIDTH 600 0
DWIDTH 8 0
BBX 3 3 2 3
BITMAP
40
E0
40
ENDCHAR
STARTCHAR $184
ENCODING 184
SWIDTH 600 0
DWIDTH 8 0
BBX 3 4 2 -3
BITMAP
E0
E0
60
C0
ENDCHAR
STARTCHAR $185
ENCODING 185
SWIDTH 600 0
DWIDTH 8 0
BBX 4 6 1 5
BITMAP
60
E0
60
60
60
F0
ENDCHAR
STARTCHAR $186
ENCODING 186
SWIDTH 600 0
DWIDTH 8 0
BBX 5 6 1 5
BITMAP
70
D8
D8
D8
D8
70
ENDCHAR
STARTCHAR $187
ENCODING 187
SWIDTH 600 0
DWIDTH 8 0
BBX 7 5 0 1
BITMAP
6C
36
36
6C
D8
ENDCHAR
STARTCHAR $188
ENCODING 188
SWIDTH 600 0
DWIDTH 8 0
BBX 6 12 1 -1
BITMAP
04
44
C8
48
50
10
20
24
4C
5C
84
84
ENDCHAR
STARTCHAR $189
ENCODING 189
SWIDTH 600 0
DWIDTH 8 0
BBX 6 12 1 -1
BITMAP
04
44
C8
48
50
10
20
28
54
44
88
9C
ENDCHAR
STARTCHAR $190
ENCODING 190
SWIDTH 600 0
DWIDTH 8 0
BBX 6 12 1 -1
BITMAP
04
C4
48
88
50
D0
20
24
4C
5C
84
84
ENDCHAR
STARTCHAR $191
ENCODING 191
SWIDTH 600 0
DWIDTH 8 0
BBX 6 10 0 0
BITMAP
0C
0C
00
18
18
30
60
C0
CC
78
ENDCHAR
STARTCHAR $192
ENCODING 192
SWIDTH 600 0
DWIDTH 8 0
BBX 7 11 0 0
BITMAP
0C
06
00
06
0E
16
36
7E
66
C6
C6
ENDCHAR
STARTCHAR $193
ENCODING 193
SWIDTH 600 0
DWIDTH 8 0
BBX 8 11 0 0
BITMAP
03
06
00
06
0E
16
36
7E
66
C6
C6
ENDCHAR
STARTCHAR $194
ENCODING 194
SWIDTH 600 0
DWIDTH 8 0
BBX 8 11 0 0
BITMAP
0E
1B
00
06
0E
16
36
7E
66
C6
C6
ENDCHAR
STARTCHAR $195
ENCODING 195
SWIDTH 600 0
DWIDTH 8 0
BBX 8 11 0 0
BITMAP
0D
16
00
06
0E
16
36
7E
66
C6
C6
ENDCHAR
STARTCHAR $196
ENCODING 196
SWIDTH 600 0
DWIDTH 8 0
BBX 8 11 0 0
BITMAP
33
33
00
06
0E
16
36
7E
66
C6
C6
ENDCHAR
STARTCHAR $197
ENCODING 197
SWIDTH 600 0
DWIDTH 8 0
BBX 8 12 0 0
BITMAP
0E
1B
0E
06
0E
1E
36
36
7E
66
C6
C6
ENDCHAR
STARTCHAR $198
ENCODING 198
SWIDTH 600 0
DWIDTH 8 0
BBX 8 9 0 0
BITMAP
0F
1E
34
2C
6E
78
D8
D8
DC
ENDCHAR
STARTCHAR $199
ENCODING 199
SWIDTH 600 0
DWIDTH 8 0
BBX 8 12 0 -3
BITMAP
1E
33
30
60
60
60
C0
CC
78
30
60
C0
ENDCHAR
STARTCHAR $200
ENCODING 200
SWIDTH 600 0
DWIDTH 8 0
BBX 8 11 0 0
BITMAP
0C
06
00
3F
30
60
7C
60
C0
C0
FC
ENDCHAR
STARTCHAR $201
ENCODING 201
SWIDTH 600 0
DWIDTH 8 0
BBX 8 11 0 0
BITMAP
06
0C
00
3F
30
60
7C
60
C0
C0
FC
ENDCHAR
STARTCHAR $202
ENCODING 202
SWIDTH 600 0
DWIDTH 8 0
BBX 8 11 0 0
BITMAP
0E
1B
00
3F
30
60
7C
60
C0
C0
FC
ENDCHAR
STARTCHAR $203
ENCODING 203
SWIDTH 600 0
DWIDTH 8 0
BBX 8 11 0 0
BITMAP
33
33
00
3F
30
60
7C
60
C0
C0
FC
ENDCHAR
STARTCHAR $204
ENCODING 204
SWIDTH 600 0
DWIDTH 8 0
BBX 8 11 0 0
BITMAP
0C
06
00
3F
0C
0C
18
18
30
30
F8
ENDCHAR
STARTCHAR $205
ENCODING 205
SWIDTH 600 0
DWIDTH 8 0
BBX 8 11 0 0
BITMAP
06
0C
00
3F
0C
0C
18
18
30
30
FC
ENDCHAR
STARTCHAR $206
ENCODING 206
SWIDTH 600 0
DWIDTH 8 0
BBX 8 11 0 0
BITMAP
0E
1B
00
3F
0C
0C
18
18
30
30
FC
ENDCHAR
STARTCHAR $207
ENCODING 207
SWIDTH 600 0
DWIDTH 8 0
BBX 8 11 0 0
BITMAP
33
33
00
3F
0C
0C
18
18
30
30
FC
ENDCHAR
STARTCHAR $208
ENCODING 208
SWIDTH 600 0
DWIDTH 8 0
BBX 7 8 0 0
BITMAP
3C
36
36
FE
6C
6C
6C
78
ENDCHAR
STARTCHAR $209
ENCODING 209
SWIDTH 600 0
DWIDTH 8 0
BBX 8 11 0 0
BITMAP
0D
16
00
33
3B
6E
66
66
CC
CC
CC
ENDCHAR
STARTCHAR $210
ENCODING 210
SWIDTH 600 0
DWIDTH 8 0
BBX 7 11 0 0
BITMAP
18
0C
00
3C
66
66
66
CC
CC
CC
78
ENDCHAR
STARTCHAR $211
ENCODING 211
SWIDTH 600 0
DWIDTH 8 0
BBX 7 11 0 0
BITMAP
06
0C
00
3C
66
66
66
CC
CC
CC
78
ENDCHAR
STARTCHAR $212
ENCODING 212
SWIDTH 600 0
DWIDTH 8 0
BBX 7 11 0 0
BITMAP
1C
36
00
3C
66
66
66
CC
CC
CC
78
ENDCHAR
STARTCHAR $213
ENCODING 213
SWIDTH 600 0
DWIDTH 8 0
BBX 8 11 0 0
BITMAP
0D
16
00
3C
66
66
66
CC
CC
CC
78
ENDCHAR
STARTCHAR $214
ENCODING 214
SWIDTH 600 0
DWIDTH 8 0
BBX 8 11 0 0
BITMAP
33
33
00
3C
66
66
66
CC
CC
CC
78
ENDCHAR
STARTCHAR $215
ENCODING 215
SWIDTH 600 0
DWIDTH 8 0
BBX 6 5 1 1
BITMAP
6C
78
30
78
D8
ENDCHAR
STARTCHAR $216
ENCODING 216
SWIDTH 600 0
DWIDTH 8 0
BBX 8 11 0 -1
BITMAP
01
1D
32
37
6B
76
D6
EC
4C
B8
80
ENDCHAR
STARTCHAR $217
ENCODING 217
SWIDTH 600 0
DWIDTH 8 0
BBX 7 11 0 0
BITMAP
18
0C
00
66
66
66
66
CC
CC
CC
78
ENDCHAR
STARTCHAR $218
ENCODING 218
SWIDTH 600 0
DWIDTH 8 0
BBX 7 11 0 0
BITMAP
0C
18
00
66
66
66
66
CC
CC
CC
78
ENDCHAR
STARTCHAR $219
ENCODING 219
SWIDTH 600 0
DWIDTH 8 0
BBX 7 11 0 0
BITMAP
1C
36
00
66
66
66
66
CC
CC
CC
78
ENDCHAR
STARTCHAR $220
ENCODING 220
SWIDTH 600 0
DWIDTH 8 0
BBX 8 11 0 0
BITMAP
33
33
00
66
66
66
66
CC
CC
CC
78
ENDCHAR
STARTCHAR $221
ENCODING 221
SWIDTH 600 0
DWIDTH 8 0
BBX 7 11 1 0
BITMAP
0C
18
00
C6
CC
D8
F0
60
60
E0
E0
ENDCHAR
STARTCHAR $222
ENCODING 222
SWIDTH 600 0
DWIDTH 8 0
BBX 6 8 1 0
BITMAP
60
60
78
6C
6C
F8
C0
C0
ENDCHAR
STARTCHAR $223
ENCODING 223
SWIDTH 600 0
DWIDTH 8 0
BBX 8 10 0 -1
BITMAP
0E
1B
1E
3C
36
36
6C
6C
78
C0
ENDCHAR
STARTCHAR $224
ENCODING 224
SWIDTH 600 0
DWIDTH 8 0
BBX 7 11 0 0
BITMAP
38
18
0C
00
3C
06
06
7C
CC
CC
7C
ENDCHAR
STARTCHAR $225
ENCODING 225
SWIDTH 600 0
DWIDTH 8 0
BBX 7 11 0 0
BITMAP
0E
0C
18
00
3C
06
06
7C
CC
CC
7C
ENDCHAR
STARTCHAR $226
ENCODING 226
SWIDTH 600 0
DWIDTH 8 0
BBX 8 11 0 0
BITMAP
0C
1E
33
00
3C
06
06
7C
CC
CC
7C
ENDCHAR
STARTCHAR $227
ENCODING 227
SWIDTH 600 0
DWIDTH 8 0
BBX 7 11 0 0
BITMAP
1A
2C
00
00
3C
06
06
7C
CC
CC
7C
ENDCHAR
STARTCHAR $228
ENCODING 228
SWIDTH 600 0
DWIDTH 8 0
BBX 8 11 0 0
BITMAP
33
33
00
00
3C
06
06
7C
CC
CC
7C
ENDCHAR
STARTCHAR $229
ENCODING 229
SWIDTH 600 0
DWIDTH 8 0
BBX 7 11 0 0
BITMAP
1C
36
1C
00
3C
06
06
7C
CC
CC
7C
ENDCHAR
STARTCHAR $230
ENCODING 230
SWIDTH 600 0
DWIDTH 8 0
BBX 7 7 0 0
BITMAP
24
1A
1A
7E
B0
B4
68
ENDCHAR
STARTCHAR $231
ENCODING 231
SWIDTH 600 0
DWIDTH 8 0
BBX 7 11 0 -4
BITMAP
3C
66
60
C0
C0
CC
78
30
30
60
C0
ENDCHAR
STARTCHAR $232
ENCODING 232
SWIDTH 600 0
DWIDTH 8 0
BBX 7 11 0 0
BITMAP
38
18
0C
00
3C
66
66
FE
C0
CC
78
ENDCHAR
STARTCHAR $233
ENCODING 233
SWIDTH 600 0
DWIDTH 8 0
BBX 7 11 0 0
BITMAP
0E
0C
18
00
3C
66
66
FE
C0
CC
78
ENDCHAR
STARTCHAR $234
ENCODING 234
SWIDTH 600 0
DWIDTH 8 0
BBX 8 11 0 0
BITMAP
0C
1E
33
00
3C
66
66
FE
C0
CC
78
ENDCHAR
STARTCHAR $235
ENCODING 235
SWIDTH 600 0
DWIDTH 8 0
BBX 8 11 0 0
BITMAP
33
33
00
00
3C
66
66
FE
C0
CC
78
ENDCHAR
STARTCHAR $236
ENCODING 236
SWIDTH 600 0
DWIDTH 8 0
BBX 4 11 2 0
BITMAP
E0
60
30
00
70
30
30
60
60
60
F0
ENDCHAR
STARTCHAR $237
ENCODING 237
SWIDTH 600 0
DWIDTH 8 0
BBX 6 11 2 0
BITMAP
1C
18
30
00
70
30
30
60
60
60
F0
ENDCHAR
STARTCHAR $238
ENCODING 238
SWIDTH 600 0
DWIDTH 8 0
BBX 6 11 2 0
BITMAP
30
78
CC
00
70
30
30
60
60
60
F0
ENDCHAR
STARTCHAR $239
ENCODING 239
SWIDTH 600 0
DWIDTH 8 0
BBX 6 11 2 0
BITMAP
CC
CC
00
00
70
30
30
60
60
60
F0
ENDCHAR
STARTCHAR $240
ENCODING 240
SWIDTH 600 0
DWIDTH 8 0
BBX 7 11 0 0
BITMAP
1A
0C
16
06
06
3E
66
66
CC
CC
78
ENDCHAR
STARTCHAR $241
ENCODING 241
SWIDTH 600 0
DWIDTH 8 0
BBX 7 11 0 0
BITMAP
1A
2C
00
00
7C
66
66
66
CC
CC
CC
ENDCHAR
STARTCHAR $242
ENCODING 242
SWIDTH 600 0
DWIDTH 8 0
BBX 7 11 0 0
BITMAP
38
18
0C
00
3C
66
66
C6
CC
CC
78
ENDCHAR
STARTCHAR $243
ENCODING 243
SWIDTH 600 0
DWIDTH 8 0
BBX 7 11 0 0
BITMAP
0E
0C
18
00
3C
66
66
C6
CC
CC
78
ENDCHAR
STARTCHAR $244
ENCODING 244
SWIDTH 600 0
DWIDTH 8 0
BBX 8 11 0 0
BITMAP
0C
1E
33
00
3C
66
66
C6
CC
CC
78
ENDCHAR
STARTCHAR $245
ENCODING 245
SWIDTH 600 0
DWIDTH 8 0
BBX 7 11 0 0
BITMAP
1A
2C
00
00
3C
66
66
C6
CC
CC
78
ENDCHAR
STARTCHAR $246
ENCODING 246
SWIDTH 600 0
DWIDTH 8 0
BBX 8 11 0 0
BITMAP
33
33
00
00
3C
66
66
C6
CC
CC
78
ENDCHAR
STARTCHAR $247
ENCODING 247
SWIDTH 600 0
DWIDTH 8 0
BBX 7 5 0 2
BITMAP
18
00
FE
00
30
ENDCHAR
STARTCHAR $248
ENCODING 248
SWIDTH 600 0
DWIDTH 8 0
BBX 7 9 0 -1
BITMAP
02
3C
66
6E
D6
EC
CC
78
80
ENDCHAR
STARTCHAR $249
ENCODING 249
SWIDTH 600 0
DWIDTH 8 0
BBX 7 11 0 0
BITMAP
38
18
0C
00
66
66
66
CC
CC
CC
7C
ENDCHAR
STARTCHAR $250
ENCODING 250
SWIDTH 600 0
DWIDTH 8 0
BBX 7 11 0 0
BITMAP
0E
0C
18
00
66
66
66
CC
CC
CC
7C
ENDCHAR
STARTCHAR $251
ENCODING 251
SWIDTH 600 0
DWIDTH 8 0
BBX 8 11 0 0
BITMAP
0C
1E
33
00
66
66
66
CC
CC
CC
7C
ENDCHAR
STARTCHAR $252
ENCODING 252
SWIDTH 600 0
DWIDTH 8 0
BBX 8 11 0 0
BITMAP
33
33
00
00
66
66
66
CC
CC
CC
7C
ENDCHAR
STARTCHAR $253
ENCODING 253
SWIDTH 600 0
DWIDTH 8 0
BBX 7 15 0 -4
BITMAP
0E
0C
18
00
66
66
66
CC
CC
CC
7C
18
18
18
F0
ENDCHAR
STARTCHAR $254
ENCODING 254
SWIDTH 600 0
DWIDTH 8 0
BBX 7 13 0 -3
BITMAP
30
30
30
3C
66
66
66
6C
CC
F8
C0
C0
C0
ENDCHAR
STARTCHAR $255
ENCODING 255
SWIDTH 600 0
DWIDTH 8 0
BBX 8 14 0 -4
BITMAP
33
33
00
66
66
66
CC
CC
CC
7C
18
18
18
F0
ENDCHAR
STARTCHAR $104
ENCODING 955
SWIDTH 600 0
DWIDTH 8 0
BBX 7 10 0 0
BITMAP
30
18
08
0C
06
1E
36
6C
CC
8E
ENDCHAR
STARTCHAR char960
ENCODING 960
SWIDTH 600 0
DWIDTH 8 0
BBX 8 7 0 0
BITMAP
7F
7F
36
6C
4C
CE
8E
ENDCHAR
STARTCHAR char8629
ENCODING 8629
SWIDTH 600 0
DWIDTH 8 0
BBX 8 7 0 0
BITMAP
03
23
63
FF
FF
60
20
ENDCHAR
STARTCHAR char9642
ENCODING 9642
SWIDTH 600 0
DWIDTH 8 0
BBX 5 5 1 2
BITMAP
F8
F8
F8
F8
F8
ENDCHAR
STARTCHAR char9656
ENCODING 9652
SWIDTH 600 0
DWIDTH 8 0
BBX 7 7 0 0
BITMAP
10
10
38
38
7C
7C
FE
ENDCHAR
STARTCHAR char9656
ENCODING 9656
SWIDTH 600 0
DWIDTH 8 0
BBX 5 9 1 0
BITMAP
80
C0
E0
F0
F8
F0
E0
C0
80
ENDCHAR
STARTCHAR char9656
ENCODING 9662
SWIDTH 600 0
DWIDTH 8 0
BBX 7 7 0 0
BITMAP
FE
7C
7C
38
38
10
10
ENDCHAR
STARTCHAR char9656
ENCODING 9666
SWIDTH 600 0
DWIDTH 8 0
BBX 5 9 1 0
BITMAP
08
18
38
78
F8
78
38
18
08
ENDCHAR
STARTCHAR char9670
ENCODING 9670
SWIDTH 600 0
DWIDTH 8 0
BBX 7 7 0 1
BITMAP
10
38
7C
FE
7C
38
10
ENDCHAR
STARTCHAR char10003
ENCODING 10003
SWIDTH 600 0
DWIDTH 8 0
BBX 8 10 0 0
BITMAP
01
02
02
04
04
08
88
90
50
20
ENDCHAR
STARTCHAR char10007
ENCODING 10007
SWIDTH 600 0
DWIDTH 8 0
BBX 7 11 0 0
BITMAP
02
22
24
18
18
14
22
20
40
80
80
ENDCHAR
STARTCHAR uniE0A0
ENCODING 57504
SWIDTH 600 0
DWIDTH 8 0
BBX 8 16 0 -4
BITMAP
C0
C0
C0
C4
CE
DF
C4
CC
9C
38
70
E0
E0
E0
E0
E0
ENDCHAR
STARTCHAR uniE0A1
ENCODING 57505
SWIDTH 600 0
DWIDTH 8 0
BBX 8 15 0 -3
BITMAP
C0
C0
C0
C0
C0
F8
F8
00
13
1B
1B
1F
1F
1B
19
ENDCHAR
STARTCHAR uniE0A2
ENCODING 57506
SWIDTH 600 0
DWIDTH 8 0
BBX 8 11 0 -1
BITMAP
3C
66
42
42
7E
E7
C3
E7
FF
7E
3C
ENDCHAR
STARTCHAR uniE0B0
ENCODING 57520
SWIDTH 600 0
DWIDTH 8 0
BBX 8 16 0 -4
BITMAP
80
C0
E0
F0
F8
FC
FE
FF
FF
FE
FC
F8
F0
E0
C0
80
ENDCHAR
STARTCHAR uniE0B1
ENCODING 57521
SWIDTH 600 0
DWIDTH 8 0
BBX 8 16 0 -4
BITMAP
80
C0
60
30
18
0C
06
03
03
06
0C
18
30
60
C0
80
ENDCHAR
STARTCHAR uniE0B2
ENCODING 57522
SWIDTH 600 0
DWIDTH 8 0
BBX 8 16 0 -4
BITMAP
01
03
07
0F
1F
3F
7F
FF
FF
7F
3F
1F
0F
07
03
01
ENDCHAR
STARTCHAR uniE0B3
ENCODING 57523
SWIDTH 600 0
DWIDTH 8 0
BBX 8 16 0 -4
BITMAP
01
03
06
0C
18
30
60
C0
C0
60
30
18
0C
06
03
01
ENDCHAR
ENDFONT
